<svg width="51" height="52" viewBox="0 0 51 52" fill="none" xmlns="http://www.w3.org/2000/svg">
<path d="M1.64453 27.9298C1.64453 27.9298 3.75273 38.3616 9.8046 42.8401C15.8565 47.3186 24.0065 50.8617 34.0412 48.1309C44.0759 45.4 47.9255 36.5874 47.9255 36.5874C47.9255 36.5874 34.8439 43.8192 21.6184 41.0364C8.39296 38.2537 1.64453 27.9298 1.64453 27.9298Z" fill="white" stroke="white" stroke-width="0.5"/>
<path d="M18.1738 38.8324C18.1738 38.8324 36.4794 40.3612 42.141 36.9066C47.8026 33.4519 47.5928 31.6186 48.4923 28.6621C49.3918 25.7057 43.5929 16.0289 43.5929 16.0289C43.5929 16.0289 46.5608 25.344 42.141 30.4069C36.5211 36.8445 18.1738 38.8324 18.1738 38.8324Z" fill="white" stroke="white" stroke-width="0.5"/>
<path d="M7.97069 18.6736C7.97069 18.6736 3.31968 24.131 5.56235 28.8752C7.80502 33.6194 11.8189 36.1817 16.5203 36.9752C24.1407 38.2615 34.7032 33.2402 34.7032 33.2402C34.7032 33.2402 16.4562 33.3158 11.9444 30.2522C7.43266 27.1885 7.97069 18.6736 7.97069 18.6736Z" fill="white" stroke="white" stroke-width="0.5"/>
<path d="M25.2047 17.0259C25.4661 16.5781 26.0881 16.5781 26.3495 17.0259L28.0155 19.8794C28.1086 20.0389 28.2587 20.1529 28.4324 20.1962L31.5424 20.9713C32.0305 21.0929 32.2227 21.7115 31.8962 22.1099L29.8158 24.6485C29.6996 24.7904 29.6423 24.9749 29.6566 25.1611L29.9127 28.4936C29.9529 29.0166 29.4497 29.3989 28.9865 29.1973L26.0348 27.9128C25.8698 27.841 25.6843 27.841 25.5194 27.9128L22.5677 29.1973C22.1045 29.3989 21.6013 29.0166 21.6415 28.4936L21.8976 25.1611C21.9119 24.9749 21.8546 24.7904 21.7384 24.6485L19.658 22.1099C19.3315 21.7115 19.5237 21.0929 20.0118 20.9713L23.1217 20.1962C23.2955 20.1529 23.4456 20.0389 23.5387 19.8794L25.2047 17.0259Z" fill="white" stroke="white" stroke-width="0.5"/>
</svg>
